<svg width="34" height="22" viewBox="0 0 34 22" fill="none" xmlns="http://www.w3.org/2000/svg">
<path d="M13.3153 20.8932L13.3061 20.8897L13.2773 20.8757C13.1082 20.7931 12.9406 20.7083 12.7743 20.6214C10.7754 19.5661 8.90736 18.3265 7.20118 16.923C4.17956 14.4182 0.978027 10.7012 0.978027 6.12319C0.978027 2.70719 4.2137 -0.00180931 8.11909 -0.00180931C9.20476 -0.00653364 10.2777 0.206255 11.258 0.62073C12.2384 1.03521 13.1009 1.6407 13.7815 2.39219C14.4623 1.64055 15.325 1.03496 16.3056 0.620476C17.2862 0.205994 18.3594 -0.00670932 19.4453 -0.00180931C23.3493 -0.00180931 26.585 2.70719 26.585 6.12319C26.585 10.7024 23.3835 14.4194 20.3619 16.9219C18.6557 18.3253 16.7877 19.565 14.7887 20.6202C14.6225 20.7075 14.4548 20.7927 14.2858 20.8757L14.2569 20.8897L14.2477 20.8944L14.2438 20.8955C14.1014 20.9625 13.9427 20.9976 13.7815 20.9976C13.6204 20.9976 13.4617 20.9625 13.3193 20.8955L13.3153 20.8932Z" fill="white"/>
<path d="M24.9172 18.9649L28.5078 12.7316H26.0315V8.69823L22.3171 14.9316H24.9172V18.9649ZM25.4125 21.1649C24.2706 21.1649 23.1976 20.9724 22.1933 20.5874C21.189 20.2024 20.3155 19.6799 19.5726 19.0199C18.8297 18.3599 18.2416 17.5838 17.8082 16.6916C17.3749 15.7993 17.1582 14.846 17.1582 13.8316C17.1582 12.8171 17.3749 11.8638 17.8082 10.9716C18.2416 10.0793 18.8297 9.30323 19.5726 8.64323C20.3155 7.98323 21.189 7.46073 22.1933 7.07573C23.1976 6.69073 24.2706 6.49823 25.4125 6.49823C26.5543 6.49823 27.6274 6.69073 28.6316 7.07573C29.6359 7.46073 30.5095 7.98323 31.2524 8.64323C31.9952 9.30323 32.5834 10.0793 33.0167 10.9716C33.4501 11.8638 33.6667 12.8171 33.6667 13.8316C33.6667 14.846 33.4501 15.7993 33.0167 16.6916C32.5834 17.5838 31.9952 18.3599 31.2524 19.0199C30.5095 19.6799 29.6359 20.2024 28.6316 20.5874C27.6274 20.9724 26.5543 21.1649 25.4125 21.1649Z" fill="#894189"/>
<path d="M25.3373 18.4982L28.6015 12.8315H26.3504V9.16486L22.9736 14.8315H25.3373V18.4982ZM25.7876 20.4982C24.7495 20.4982 23.774 20.3232 22.8611 19.9732C21.9481 19.6232 21.1539 19.1482 20.4786 18.5482C19.8032 17.9482 19.2686 17.2426 18.8746 16.4315C18.4807 15.6204 18.2837 14.7537 18.2837 13.8315C18.2837 12.9093 18.4807 12.0426 18.8746 11.2315C19.2686 10.4204 19.8032 9.71486 20.4786 9.11486C21.1539 8.51486 21.9481 8.03986 22.8611 7.68986C23.774 7.33986 24.7495 7.16486 25.7876 7.16486C26.8256 7.16486 27.8011 7.33986 28.7141 7.68986C29.6271 8.03986 30.4212 8.51486 31.0966 9.11486C31.7719 9.71486 32.3066 10.4204 32.7005 11.2315C33.0945 12.0426 33.2914 12.9093 33.2914 13.8315C33.2914 14.7537 33.0945 15.6204 32.7005 16.4315C32.3066 17.2426 31.7719 17.9482 31.0966 18.5482C30.4212 19.1482 29.6271 19.6232 28.7141 19.9732C27.8011 20.3232 26.8256 20.4982 25.7876 20.4982Z" fill="white"/>
</svg>
